<svg xmlns="http://www.w3.org/2000/svg" xmlns:xlink="http://www.w3.org/1999/xlink" width="100.0" height="100.0" viewBox="-0.4186183634245114 -0.4049437464528498 10.652627139516119 10.565066629975451" preserveAspectRatio="xMinYMin meet"><g transform="matrix(1,0,0,-1,0,9.755179137069753)"><g><path fill-rule="evenodd" fill="#ff3333" stroke="#555555" stroke-width="0.21305254279032237" opacity="0.6" d="M 6.727456244416596,4.531235573690018 L 7.703376667791205,4.313108713261676 L 7.485249807362863,3.3371882898870684 L 6.509329383988255,3.5553151503154092 L 6.727456244416596,4.531235573690018 z" /><path fill-rule="evenodd" fill="#ff3333" stroke="#555555" stroke-width="0.21305254279032237" opacity="0.6" d="M 5.541144671739155,0.8924401203525887 L 6.443986792636589,1.3224123342611425 L 6.873959006545143,0.41957021336370826 L 5.971116885647709,-0.010402000544845441 L 5.541144671739155,0.8924401203525887 z" /><path fill-rule="evenodd" fill="#ff3333" stroke="#555555" stroke-width="0.21305254279032237" opacity="0.6" d="M 1.4745744092408652,9.285825570962485 L 2.463518905246122,9.137539415772904 L 2.31523275005654,8.148594919767648 L 1.326288254051283,8.296881074957229 L 1.4745744092408652,9.285825570962485 z" /><path fill-rule="evenodd" fill="#ff3333" stroke="#555555" stroke-width="0.21305254279032237" opacity="0.6" d="M 9.839467030183602,0.9371229214632137 L 8.96080865415066,0.4596719205980446 L 8.483357653285491,1.3383302966309873 L 9.362016029318433,1.8157812974961565 L 9.839467030183602,0.9371229214632137 z" /><path fill-rule="evenodd" fill="#ff3333" stroke="#555555" stroke-width="0.21305254279032237" opacity="0.6" d="M 8.222909468708535,3.1221629667771498 L 7.573862300082062,2.3614148002345297 L 6.813114133539441,3.010461968861003 L 7.462161302165914,3.771210135403623 L 8.222909468708535,3.1221629667771498 z" /><path fill-rule="evenodd" fill="#ff3333" stroke="#555555" stroke-width="0.21305254279032237" opacity="0.6" d="M 0.4097165584716343,4.849881398101047 L -0.02407661751650708,5.750893873301097 L 0.8769358576835431,6.184687049289238 L 1.3107290336716846,5.283674574089188 L 0.4097165584716343,4.849881398101047 z" /><path fill-rule="evenodd" fill="#ff3333" stroke="#555555" stroke-width="0.21305254279032237" opacity="0.6" d="M 8.07023672804731,2.668150388672393 L 9.067741631143528,2.597553162813249 L 8.997144405284383,1.6000482597170322 L 7.999639502188165,1.6706454855761768 L 8.07023672804731,2.668150388672393 z" /><path fill-rule="evenodd" fill="#ff3333" stroke="#555555" stroke-width="0.21305254279032237" opacity="0.6" d="M 4.941138582589042,0.4393278373062585 L 5.172652892189728,1.4121593357941098 L 6.145484390677579,1.180645026193425 L 5.913970081076894,0.20781352770557365 L 4.941138582589042,0.4393278373062585 z" /><path fill-rule="evenodd" fill="#ff3333" stroke="#555555" stroke-width="0.21305254279032237" opacity="0.6" d="M 6.553471186315649,9.765581137614598 L 7.4572357410366426,9.337551197505308 L 7.02920580092735,8.433786642784314 L 6.125441246206357,8.861816582893605 L 6.553471186315649,9.765581137614598 z" /><path fill-rule="evenodd" fill="#ff3333" stroke="#555555" stroke-width="0.21305254279032237" opacity="0.6" d="M 2.441767343089263,5.901050015468342 L 2.975498418554381,6.746704282342724 L 3.8211526854287627,6.212973206877606 L 3.2874216099636446,5.367318940003224 L 2.441767343089263,5.901050015468342 z" /><path fill-rule="evenodd" fill="#ff3333" stroke="#555555" stroke-width="0.21305254279032237" opacity="0.6" d="M 4.668032691275468,7.899736267668827 L 4.227629104062863,8.797536178768327 L 5.125429015162362,9.237939765980931 L 5.565832602374967,8.34013985488143 L 4.668032691275468,7.899736267668827 z" /></g></g></svg>