<svg xmlns="http://www.w3.org/2000/svg" xmlns:xlink="http://www.w3.org/1999/xlink" width="100.0" height="100.0" viewBox="-0.9335471571287186 -0.738647264278315 12.877504550640133 11.615597055239965" preserveAspectRatio="xMinYMin meet"><g transform="matrix(1,0,0,-1,0,10.138302526683335)"><g><path fill-rule="evenodd" fill="#ff3333" stroke="#555555" stroke-width="0.25755009101280263" opacity="0.6" d="M 2.670719074918117,1.5083596968938415 L 3.589656850797141,1.9027622375328603 L 3.9840593914361593,0.9838244616538364 L 3.0651216155571355,0.5894219210148178 L 2.670719074918117,1.5083596968938415 z" /><path fill-rule="evenodd" fill="#ff3333" stroke="#555555" stroke-width="0.25755009101280263" opacity="0.6" d="M 9.036671453579663,-0.2617026512916433 L 8.349112945604842,0.4644263304405556 L 9.075241927337041,1.151984838415375 L 9.762800435311862,0.4258558566831762 L 9.036671453579663,-0.2617026512916433 z" /><path fill-rule="evenodd" fill="#ff3333" stroke="#555555" stroke-width="0.25755009101280263" opacity="0.6" d="M 4.5089958302736015,2.8853826107742004 L 3.527207732250329,3.0753619006450843 L 3.717187022121213,4.057149998668357 L 4.698975120144485,3.8671707087974725 L 4.5089958302736015,2.8853826107742004 z" /><path fill-rule="evenodd" fill="#ff3333" stroke="#555555" stroke-width="0.25755009101280263" opacity="0.6" d="M 1.4995094339882904,6.522815550704519 L 2.347530239227564,5.992852614376576 L 1.8175673028996222,5.144831809137304 L 0.9695464976603487,5.674794745465246 L 1.4995094339882904,6.522815550704519 z" /><path fill-rule="evenodd" fill="#ff3333" stroke="#555555" stroke-width="0.25755009101280263" opacity="0.6" d="M 3.429838517787983,8.765362836486485 L 2.96153730730081,7.881793950515363 L 2.0779684213296883,8.350095161002535 L 2.546269631816861,9.233664046973658 L 3.429838517787983,8.765362836486485 z" /><path fill-rule="evenodd" fill="#ff3333" stroke="#555555" stroke-width="0.25755009101280263" opacity="0.6" d="M 7.462298770458468,7.408119056897879 L 7.196953128513189,6.4439657027572395 L 6.232799774372549,6.7093113447025186 L 6.498145416317828,7.6734646988431585 L 7.462298770458468,7.408119056897879 z" /><path fill-rule="evenodd" fill="#ff3333" stroke="#555555" stroke-width="0.25755009101280263" opacity="0.6" d="M -0.24305278220845228,0.635779630745705 L -0.45660254414204693,1.6127118183504052 L 0.5203296434626532,1.8262615802839997 L 0.7338794053962479,0.8493293926792994 L -0.24305278220845228,0.635779630745705 z" /><path fill-rule="evenodd" fill="#ff3333" stroke="#555555" stroke-width="0.25755009101280263" opacity="0.6" d="M 5.758652732688916,4.944665603337784 L 6.566712123223488,5.533766631489064 L 7.155813151374768,4.725707240954492 L 6.347753760840196,4.136606212803212 L 5.758652732688916,4.944665603337784 z" /><path fill-rule="evenodd" fill="#ff3333" stroke="#555555" stroke-width="0.25755009101280263" opacity="0.6" d="M 11.467012780524744,4.176350969109365 L 10.672482837285827,3.5691259949055993 L 10.06525786308206,4.363655938144515 L 10.859787806320977,4.9708809123482816 L 11.467012780524744,4.176350969109365 z" /><path fill-rule="evenodd" fill="#ff3333" stroke="#555555" stroke-width="0.25755009101280263" opacity="0.6" d="M 2.7316777406111945,7.159906583010093 L 2.7291433828839797,6.159909794499795 L 1.7291465943736815,6.162444152227009 L 1.7316809521008962,7.162440940737307 L 2.7316777406111945,7.159906583010093 z" /><path fill-rule="evenodd" fill="#ff3333" stroke="#555555" stroke-width="0.25755009101280263" opacity="0.6" d="M 3.0933504014578084,9.669716933752387 L 2.3630621572352144,8.986577796862775 L 1.6799230203456048,9.716866041085368 L 2.410211264568199,10.400005177974979 L 3.0933504014578084,9.669716933752387 z" /></g></g></svg>