<svg xmlns="http://www.w3.org/2000/svg" xmlns:xlink="http://www.w3.org/1999/xlink" width="100.0" height="100.0" viewBox="0.30426055821952713 -0.5271234486724105 11.724391431197317 11.976409553772493" preserveAspectRatio="xMinYMin meet"><g transform="matrix(1,0,0,-1,0,10.922162656427671)"><g><path fill-rule="evenodd" fill="#ff3333" stroke="#555555" stroke-width="0.23952819107544987" opacity="0.6" d="M 5.265445305069935,10.158221782611855 L 6.18543036140931,9.766268346458736 L 5.79347692525619,8.846283290119361 L 4.873491868916815,9.238236726272481 L 5.265445305069935,10.158221782611855 z" /><path fill-rule="evenodd" fill="#ff3333" stroke="#555555" stroke-width="0.23952819107544987" opacity="0.6" d="M 10.171477618341616,5.617635201289886 L 10.899044373629096,6.303672092863838 L 11.585081265203048,5.57610533757636 L 10.857514509915568,4.890068446002408 L 10.171477618341616,5.617635201289886 z" /><path fill-rule="evenodd" fill="#ff3333" stroke="#555555" stroke-width="0.23952819107544987" opacity="0.6" d="M 2.4451636248399113,-0.08355272445861439 L 1.581648308257245,0.4207698885849981 L 2.0859709213008575,1.2842852051676648 L 2.949486237883524,0.7799625921240523 L 2.4451636248399113,-0.08355272445861439 z" /><path fill-rule="evenodd" fill="#ff3333" stroke="#555555" stroke-width="0.23952819107544987" opacity="0.6" d="M 6.320631591362078,4.433306031808451 L 6.21101251526564,5.4272797025642525 L 7.204986186021442,5.5368987786606905 L 7.31460526211788,4.542925107904889 L 6.320631591362078,4.433306031808451 z" /><path fill-rule="evenodd" fill="#ff3333" stroke="#555555" stroke-width="0.23952819107544987" opacity="0.6" d="M 8.39504526006247,10.265815830533388 L 9.067762626708806,11.005715380886286 L 9.807662177061705,10.332998014239951 L 9.13494481041537,9.593098463887053 L 8.39504526006247,10.265815830533388 z" /><path fill-rule="evenodd" fill="#ff3333" stroke="#555555" stroke-width="0.23952819107544987" opacity="0.6" d="M 5.148973202769383,1.3502906682081968 L 5.124211614077723,0.3505972833518874 L 4.1245182292214135,0.3753588720435482 L 4.149279817913074,1.3750522568998576 L 5.148973202769383,1.3502906682081968 z" /><path fill-rule="evenodd" fill="#ff3333" stroke="#555555" stroke-width="0.23952819107544987" opacity="0.6" d="M 0.7478312824333232,3.4567526444700043 L 1.15469790504911,4.37024022041246 L 2.0681854809915654,3.9633735977966733 L 1.6613188583757785,3.049886021854218 L 0.7478312824333232,3.4567526444700043 z" /><path fill-rule="evenodd" fill="#ff3333" stroke="#555555" stroke-width="0.23952819107544987" opacity="0.6" d="M 5.956250864975018,7.435561902189087 L 6.901893088019796,7.760770736624637 L 7.227101922455346,6.815128513579858 L 6.281459699410568,6.489919679144308 L 5.956250864975018,7.435561902189087 z" /><path fill-rule="evenodd" fill="#ff3333" stroke="#555555" stroke-width="0.23952819107544987" opacity="0.6" d="M 3.084527363261801,3.7644284758559117 L 3.6824826700531657,4.56595792077983 L 4.484012114977085,3.9680026139884657 L 3.88605680818572,3.166473169064547 L 3.084527363261801,3.7644284758559117 z" /><path fill-rule="evenodd" fill="#ff3333" stroke="#555555" stroke-width="0.23952819107544987" opacity="0.6" d="M 2.400779379684849,7.145876343341139 L 2.354653121214933,6.146940725656212 L 1.3557175035300062,6.193066984126129 L 1.4018437619999224,7.192002601811056 L 2.400779379684849,7.145876343341139 z" /><path fill-rule="evenodd" fill="#ff3333" stroke="#555555" stroke-width="0.23952819107544987" opacity="0.6" d="M 6.743199183032118,8.467141097621138 L 6.459526756322237,7.508219852510504 L 5.500605511211605,7.791892279220385 L 5.784277937921486,8.750813524331019 L 6.743199183032118,8.467141097621138 z" /></g></g></svg>