<svg xmlns="http://www.w3.org/2000/svg" xmlns:xlink="http://www.w3.org/1999/xlink" width="100.0" height="100.0" viewBox="0.2847400114496699 0.3523635679751086 0.8391707219415645 0.7016012071394383" preserveAspectRatio="xMinYMin meet"><g transform="matrix(1,0,0,-1,0,1.4063283430896556)"><g><path fill-rule="evenodd" fill="#ff3333" stroke="#555555" stroke-width="0.01678341443883129" opacity="0.6" d="M 0.5860642935926189,0.5938041594790485 L 0.5935024631189373,0.39394252325514045 L 0.3936408268950292,0.3865043537288221 L 0.38620265736871084,0.5863659899527301 L 0.5860642935926189,0.5938041594790485 z" /><path fill-rule="evenodd" fill="#ff3333" stroke="#555555" stroke-width="0.01678341443883129" opacity="0.6" d="M 0.7667141092216174,0.59596789343938 L 0.779657291961108,0.3963871478235461 L 0.5800765463452742,0.3834439650840554 L 0.5671333636057836,0.5830247106998893 L 0.7667141092216174,0.59596789343938 z" /><path fill-rule="evenodd" fill="#ff3333" stroke="#555555" stroke-width="0.01678341443883129" opacity="0.6" d="M 0.9523493581135085,0.5920179043719591 L 0.9541695938607351,0.39202618768893116 L 0.754177877177707,0.3902059519417046 L 0.7523576414304805,0.5901976686247326 L 0.9523493581135085,0.5920179043719591 z" /><path fill-rule="evenodd" fill="#ff3333" stroke="#555555" stroke-width="0.01678341443883129" opacity="0.6" d="M 1.0783136177934403,0.6264113887653936 L 1.080797220642982,0.4264268100677206 L 0.880812641945309,0.42394320721817896 L 0.8783290390957673,0.623927785915852 L 1.0783136177934403,0.6264113887653936 z" /><path fill-rule="evenodd" fill="#ff3333" stroke="#555555" stroke-width="0.01678341443883129" opacity="0.6" d="M 0.5289011155068873,0.8018337174979144 L 0.5289011155068873,0.6018337174979145 L 0.3289011155068874,0.6018337174979145 L 0.3289011155068874,0.8018337174979144 L 0.5289011155068873,0.8018337174979144 z" /><path fill-rule="evenodd" fill="#ff3333" stroke="#555555" stroke-width="0.01678341443883129" opacity="0.6" d="M 0.7020745516349065,0.7174454989916094 L 0.71882077270833,0.5181478219360048 L 0.5195230956527255,0.5014016008625813 L 0.502776874579302,0.7006992779181859 L 0.7020745516349065,0.7174454989916094 z" /><path fill-rule="evenodd" fill="#ff3333" stroke="#555555" stroke-width="0.01678341443883129" opacity="0.6" d="M 0.8744969679492001,0.8766666657813165 L 0.9029599356038571,0.67870237740513 L 0.7049956472276706,0.6502394097504729 L 0.6765326795730136,0.8482036981266594 L 0.8744969679492001,0.8766666657813165 z" /><path fill-rule="evenodd" fill="#ff3333" stroke="#555555" stroke-width="0.01678341443883129" opacity="0.6" d="M 1.0906482989875301,0.77222309088716 L 1.0928303362822875,0.5722349944582868 L 0.8928422398534144,0.5700529571635294 L 0.890660202558657,0.7700410535924026 L 1.0906482989875301,0.77222309088716 z" /><path fill-rule="evenodd" fill="#ff3333" stroke="#555555" stroke-width="0.01678341443883129" opacity="0.6" d="M 0.5137846969348033,0.9068269164721646 L 0.5422476645894604,0.7088626280959781 L 0.3442833762132738,0.680399660441321 L 0.31582040855861676,0.8783639488175076 L 0.5137846969348033,0.9068269164721646 z" /><path fill-rule="evenodd" fill="#ff3333" stroke="#555555" stroke-width="0.01678341443883129" opacity="0.6" d="M 0.7901242844318919,0.7922337565104042 L 0.7919097361517566,0.5922417262638066 L 0.591917705905159,0.5904562745439418 L 0.5901322541852942,0.7904483047905394 L 0.7901242844318919,0.7922337565104042 z" /><path fill-rule="evenodd" fill="#ff3333" stroke="#555555" stroke-width="0.01678341443883129" opacity="0.6" d="M 1.0165501995866426,1.0228843780056 L 1.02324803762724,0.8229965620547975 L 0.8233602216764373,0.8162987240142004 L 0.8166623836358402,1.016186539965003 L 1.0165501995866426,1.0228843780056 z" /></g></g></svg>