<svg xmlns="http://www.w3.org/2000/svg" xmlns:xlink="http://www.w3.org/1999/xlink" width="100.0" height="100.0" viewBox="0.12343938931299586 0.10572115898896833 4.565432399734475 4.589518995673699" preserveAspectRatio="xMinYMin meet"><g transform="matrix(1,0,0,-1,0,4.800961313651636)"><g><path fill-rule="evenodd" fill="#66cc99" stroke="#555555" stroke-width="0.09179037991347398" opacity="0.6" d="M 1.4993912390934299,3.412091240324842 L 2.484725606256043,3.2414565870792247 L 2.314090953010426,2.2561222199166115 L 1.3287565858478125,2.426756873162229 L 1.4993912390934299,3.412091240324842 z" /><path fill-rule="evenodd" fill="#66cc99" stroke="#555555" stroke-width="0.09179037991347398" opacity="0.6" d="M 3.5288889373650414,3.39793588080972 L 4.518889604022519,3.256873199643685 L 4.3778269228564834,2.266872532986208 L 3.387826256199006,2.407935214152243 L 3.5288889373650414,3.39793588080972 z" /><path fill-rule="evenodd" fill="#66cc99" stroke="#555555" stroke-width="0.09179037991347398" opacity="0.6" d="M 3.362268926911935,2.4105336212854045 L 4.350927839469786,2.260355211985237 L 4.200749430169618,1.2716962994273864 L 3.2120905176117676,1.4218747087275538 L 3.362268926911935,2.4105336212854045 z" /><path fill-rule="evenodd" fill="#66cc99" stroke="#555555" stroke-width="0.09179037991347398" opacity="0.6" d="M 1.9425253657987653,4.345323441700765 L 2.9407857519582876,4.286364121617838 L 2.8818264318753597,3.288103735458315 L 1.8835660457158374,3.347063055541243 L 1.9425253657987653,4.345323441700765 z" /><path fill-rule="evenodd" fill="#66cc99" stroke="#555555" stroke-width="0.09179037991347398" opacity="0.6" d="M 2.326027568487145,2.313857375400183 L 3.3121270575609927,2.1477014316356047 L 3.1459711137964144,1.1616019425617579 L 2.159871624722567,1.3277578863263357 L 2.326027568487145,2.313857375400183 z" /><path fill-rule="evenodd" fill="#66cc99" stroke="#555555" stroke-width="0.09179037991347398" opacity="0.6" d="M 0.895635436425167,4.525257969637716 L 1.809005075999584,4.118126662190475 L 1.4018737685523437,3.2047570226160578 L 0.4885041289779266,3.6118883300632985 L 0.895635436425167,4.525257969637716 z" /><path fill-rule="evenodd" fill="#66cc99" stroke="#555555" stroke-width="0.09179037991347398" opacity="0.6" d="M 3.1756640584278535,1.3302369538511107 L 4.174088709965749,1.2741279955518157 L 4.117979751666454,0.27570334401392016 L 3.1195551001285584,0.33181230231321535 L 3.1756640584278535,1.3302369538511107 z" /><path fill-rule="evenodd" fill="#66cc99" stroke="#555555" stroke-width="0.09179037991347398" opacity="0.6" d="M 0.47813682176795724,3.3782061308991156 L 1.4609289042385427,3.193490883469106 L 1.2762136568085332,2.2106988009985202 L 0.2934215743379477,2.39541404842853 L 0.47813682176795724,3.3782061308991156 z" /><path fill-rule="evenodd" fill="#66cc99" stroke="#555555" stroke-width="0.09179037991347398" opacity="0.6" d="M 2.9448426737860327,4.415673126686761 L 3.9444049922262705,4.386089828115148 L 3.914821693654657,3.3865275096749103 L 2.9152593752144194,3.4161108082465237 L 2.9448426737860327,4.415673126686761 z" /><path fill-rule="evenodd" fill="#66cc99" stroke="#555555" stroke-width="0.09179037991347398" opacity="0.6" d="M 2.4985399237761428,3.3105044881153294 L 3.4837070863474775,3.138907105293953 L 3.312109703526101,2.153739942722618 L 2.326942540954766,2.3253373255439946 L 2.4985399237761428,3.3105044881153294 z" /><path fill-rule="evenodd" fill="#66cc99" stroke="#555555" stroke-width="0.09179037991347398" opacity="0.6" d="M 2.0873689659391217,2.2666945408535777 L 2.158641548389601,1.269237665098621 L 1.1611846726346444,1.1979650826481416 L 1.089912090184165,2.1954219584030983 L 2.0873689659391217,2.2666945408535777 z" /></g></g></svg>