<svg xmlns="http://www.w3.org/2000/svg" xmlns:xlink="http://www.w3.org/1999/xlink" width="100.0" height="100.0" viewBox="0.15305452027161512 0.523150754782148 4.600569056037426 4.617812084636423" preserveAspectRatio="xMinYMin meet"><g transform="matrix(1,0,0,-1,0,5.664113594200719)"><g><path fill-rule="evenodd" fill="#66cc99" stroke="#555555" stroke-width="0.09235624169272846" opacity="0.6" d="M 2.023825137212913,2.2763973860237567 L 2.9685007173031166,1.9483912147689508 L 2.6404945460483105,1.0037156346787468 L 1.6958189659581069,1.3317218059335525 L 2.023825137212913,2.2763973860237567 z" /><path fill-rule="evenodd" fill="#66cc99" stroke="#555555" stroke-width="0.09235624169272846" opacity="0.6" d="M 2.4778163099635178,4.279065002198241 L 3.454390704281691,4.063884955813606 L 3.239210657897056,3.087310561495433 L 2.262636263578883,3.3024906078800678 L 2.4778163099635178,4.279065002198241 z" /><path fill-rule="evenodd" fill="#66cc99" stroke="#555555" stroke-width="0.09235624169272846" opacity="0.6" d="M 0.7137271746533393,3.865263534905031 L 1.6346933314984256,3.4756209577320636 L 1.2450507543254576,2.5546548008869774 L 0.3240845974803715,2.944297378059945 L 0.7137271746533393,3.865263534905031 z" /><path fill-rule="evenodd" fill="#66cc99" stroke="#555555" stroke-width="0.09235624169272846" opacity="0.6" d="M 3.584059206481176,4.969932762209814 L 4.582593499100285,4.915810063980175 L 4.528470800870646,3.9172757713610666 L 3.529936508251537,3.9713984695907056 L 3.584059206481176,4.969932762209814 z" /><path fill-rule="evenodd" fill="#66cc99" stroke="#555555" stroke-width="0.09235624169272846" opacity="0.6" d="M 3.59858313621163,2.8668680739688743 L 4.541017154588706,2.5324759074852117 L 4.206624988105044,1.5900418891081363 L 3.2641909697279674,1.9244340555917985 L 3.59858313621163,2.8668680739688743 z" /><path fill-rule="evenodd" fill="#66cc99" stroke="#555555" stroke-width="0.09235624169272846" opacity="0.6" d="M 2.635627414708737,3.179540224318308 L 3.5728267238416587,2.830745936863977 L 3.2240324363873274,1.8935466277310553 L 2.286833127254406,2.2423409151853866 L 2.635627414708737,3.179540224318308 z" /><path fill-rule="evenodd" fill="#66cc99" stroke="#555555" stroke-width="0.09235624169272846" opacity="0.6" d="M 1.455796961097613,4.617763858433329 L 2.439670352604261,4.438897569029186 L 2.260804063200119,3.4550241775225383 L 1.2769306716934712,3.63389046692668 L 1.455796961097613,4.617763858433329 z" /><path fill-rule="evenodd" fill="#66cc99" stroke="#555555" stroke-width="0.09235624169272846" opacity="0.6" d="M 3.4618398606943983,3.9423795357854705 L 4.4401959884677344,3.735451318163117 L 4.233267770845381,2.7570951903897813 L 3.254911643072045,2.964023408012135 L 3.4618398606943983,3.9423795357854705 z" /><path fill-rule="evenodd" fill="#66cc99" stroke="#555555" stroke-width="0.09235624169272846" opacity="0.6" d="M 2.9768076210397094,1.9468119710272362 L 3.931343859284169,1.6487170702353642 L 3.633248958492297,0.6941808319909044 L 2.6787127202478374,0.9922757327827765 L 2.9768076210397094,1.9468119710272362 z" /><path fill-rule="evenodd" fill="#66cc99" stroke="#555555" stroke-width="0.09235624169272846" opacity="0.6" d="M 0.9155791839822423,2.5968684437097265 L 1.8619318603951898,2.2737328501177307 L 1.538796266803194,1.3273801737047832 L 0.5924435903902465,1.650515767296779 L 0.9155791839822423,2.5968684437097265 z" /><path fill-rule="evenodd" fill="#66cc99" stroke="#555555" stroke-width="0.09235624169272846" opacity="0.6" d="M 1.6800545375449856,3.5436598050842543 L 2.5968330336301086,3.144263774663445 L 2.197437003209299,2.227485278578322 L 1.2806585071241763,2.626881308999131 L 1.6800545375449856,3.5436598050842543 z" /></g></g></svg>